<svg width="40" height="40" viewBox="0 0 40 40" fill="none" xmlns="http://www.w3.org/2000/svg" role="img" aria-label="Secure Airport Transfer">
  <circle cx="20" cy="20" r="19" fill="#071A35"/>
  <circle cx="20" cy="20" r="18" stroke="#C9A227" stroke-width="1.5"/>
  <path d="M9 24.5C9 23.2 10 22 11.5 22H13.5L16 18.5H24.5L27 22H29.5C31 22 32 23.2 32 24.5V26.5H9V24.5Z" fill="#FFFFFF"/>
  <path d="M17 18.5L18.5 16H22L23.5 18.5H17Z" fill="#2563EB"/>
  <circle cx="13.5" cy="26.5" r="2" fill="#C9A227"/>
  <circle cx="27.5" cy="26.5" r="2" fill="#C9A227"/>
  <path d="M20 9L23 13.5H26.5L22.5 14.5L23.5 18L20 16L16.5 18L17.5 14.5L13.5 13.5H17L20 9Z" fill="#C9A227"/>
</svg>
