<svg xmlns="http://www.w3.org/2000/svg" viewBox="0 0 80 48" role="img" aria-label="European Union">
  <g fill="currentColor">
    <circle cx="40" cy="24" r="18" fill="none" stroke="currentColor" stroke-width="1.5"/>
    <g transform="translate(40 24)">
      <polygon points="0,-14 1.2,-4.3 11.4,-4.3 2.1,1.7 5.4,11.2 0,5.2 -5.4,11.2 -2.1,1.7 -11.4,-4.3 -1.2,-4.3"/>
      <g transform="rotate(30)"><polygon points="0,-14 1.2,-4.3 11.4,-4.3 2.1,1.7 5.4,11.2 0,5.2 -5.4,11.2 -2.1,1.7 -11.4,-4.3 -1.2,-4.3"/></g>
      <g transform="rotate(60)"><polygon points="0,-14 1.2,-4.3 11.4,-4.3 2.1,1.7 5.4,11.2 0,5.2 -5.4,11.2 -2.1,1.7 -11.4,-4.3 -1.2,-4.3"/></g>
      <g transform="rotate(90)"><polygon points="0,-14 1.2,-4.3 11.4,-4.3 2.1,1.7 5.4,11.2 0,5.2 -5.4,11.2 -2.1,1.7 -11.4,-4.3 -1.2,-4.3"/></g>
      <g transform="rotate(120)"><polygon points="0,-14 1.2,-4.3 11.4,-4.3 2.1,1.7 5.4,11.2 0,5.2 -5.4,11.2 -2.1,1.7 -11.4,-4.3 -1.2,-4.3"/></g>
      <g transform="rotate(150)"><polygon points="0,-14 1.2,-4.3 11.4,-4.3 2.1,1.7 5.4,11.2 0,5.2 -5.4,11.2 -2.1,1.7 -11.4,-4.3 -1.2,-4.3"/></g>
      <g transform="rotate(180)"><polygon points="0,-14 1.2,-4.3 11.4,-4.3 2.1,1.7 5.4,11.2 0,5.2 -5.4,11.2 -2.1,1.7 -11.4,-4.3 -1.2,-4.3"/></g>
      <g transform="rotate(210)"><polygon points="0,-14 1.2,-4.3 11.4,-4.3 2.1,1.7 5.4,11.2 0,5.2 -5.4,11.2 -2.1,1.7 -11.4,-4.3 -1.2,-4.3"/></g>
      <g transform="rotate(240)"><polygon points="0,-14 1.2,-4.3 11.4,-4.3 2.1,1.7 5.4,11.2 0,5.2 -5.4,11.2 -2.1,1.7 -11.4,-4.3 -1.2,-4.3"/></g>
      <g transform="rotate(270)"><polygon points="0,-14 1.2,-4.3 11.4,-4.3 2.1,1.7 5.4,11.2 0,5.2 -5.4,11.2 -2.1,1.7 -11.4,-4.3 -1.2,-4.3"/></g>
      <g transform="rotate(300)"><polygon points="0,-14 1.2,-4.3 11.4,-4.3 2.1,1.7 5.4,11.2 0,5.2 -5.4,11.2 -2.1,1.7 -11.4,-4.3 -1.2,-4.3"/></g>
      <g transform="rotate(330)"><polygon points="0,-14 1.2,-4.3 11.4,-4.3 2.1,1.7 5.4,11.2 0,5.2 -5.4,11.2 -2.1,1.7 -11.4,-4.3 -1.2,-4.3"/></g>
    </g>
  </g>
</svg>
